<?xml version="1.0" encoding="utf-8"?><svg version="1.1" id="Layer_1" xmlns="http://www.w3.org/2000/svg" xmlns:xlink="http://www.w3.org/1999/xlink" x="0px" y="0px" viewBox="0 0 80 80" style="enable-background:new 0 0 80 80;" xml:space="preserve"><style type="text/css">	.st0{display:none;}	.st1{display:inline;fill:#1E7C71;}	.st2{fill:#FED34C;}	.st3{fill:#323D45;}</style><g id="Layer_2" class="st0">	<rect x="0.2" class="st1" width="80" height="80"/>	<rect x="80.2" class="st1" width="80" height="80"/>	<rect x="160.2" class="st1" width="80" height="80"/>	<rect x="240.2" class="st1" width="80" height="80"/></g><g id="Layer_1_1_">	<g> <g> <circle class="st2" cx="40" cy="40" r="37.8"/> <path class="st2" d="M40,7.3C58,7.3,72.7,22,72.7,40S58,72.7,40,72.7S7.3,58,7.3,40S22,7.3,40,7.3 M40,2.2 C19.1,2.2,2.2,19.1,2.2,40S19.1,77.8,40,77.8S77.8,60.9,77.8,40S60.9,2.2,40,2.2L40,2.2z"/> </g> <g> <path class="st3" d="M40,51.3c2.3,0,4.2,1.9,4.2,4.2s-1.8,4.2-4.2,4.2c-2.3,0-4.2-1.9-4.2-4.2S37.7,51.3,40,51.3z M36.3,20.3h7.2 v27.1h-7.2V20.3z"/> </g>	</g></g></svg>